<svg xmlns="http://www.w3.org/2000/svg" id="Layer_1" version="1.1" viewBox="0 0 200 60"><defs><style>.st0{fill:#94be57}.st1{fill:#242424}</style></defs><path d="M63.32,31.94v-13.98h4.78v13.9c-.41,8.52,12.13,8.55,11.74,0v-13.9h4.81v13.98c.8,14.2-22.14,14.19-21.33,0h0Z" class="st1"/><polygon points="108.51 17.96 102.81 17.96 97.22 26.06 91.51 17.96 85.94 17.96 102.86 42.07 108.51 42.07 100.07 30.09 108.51 17.96" class="st1"/><polygon points="93.33 31.58 96.14 35.56 91.68 42.07 85.94 42.07 93.33 31.58" class="st0"/><path d="M110.6,17.96h17.78v4.27h-7.54v19.84h-4.75v-19.84h-8.39l2.9-4.27Z" class="st1"/><path d="M129.24,30c-.6-16.76,24.08-16.79,23.48,0,.6,16.79-24.08,16.76-23.48,0ZM140.99,38.31c9.62.38,9.62-16.98,0-16.59-9.65-.39-9.65,16.97,0,16.59h0Z" class="st1"/><path d="M155.82,17.96h4.27l12.05,16.19-.03-6.85v-9.33h4.75v24.11h-4.31l-12.04-16.16.08,7.17v8.99h-4.75v-24.11h-.02Z" class="st1"/><path d="M179.72,39.1l2.46-3.52c2.68,2.69,12.44,4.36,12.93-.51,0-1.8-1.68-2.77-5.44-3.2-19.01-2.24-6.25-21.76,9.14-11.45l-2.31,3.35c-8.33-6.13-17.81,2.45-6.27,3.95,19.82,2.54,6,22.83-10.51,11.38h0Z" class="st1"/><path d="M0,12.36c.11,0,12.91,0,19.21-.02.99,0,1.89.29,2.8.6,1.52.54,2.89,1.44,4,2.62.59.62,1.1,1.31,1.53,2.04,1.16,1.89,1.47,3.98,1.31,6.16-.06.78-.17,1.56-.51,2.28-.39.83-1.08,1.34-1.8,1.83-1.16.78-2.31,1.59-3.47,2.39-1.01.69-2.01,1.37-3.02,2.04-1.08.74-2.16,1.47-3.26,2.21-.48.33-.98.66-1.44.98v8.19h.72c1.53.03,3.04-.05,4.51-.48s2.81-1.11,3.86-2.28c.87-.96,1.23-2.13,1.46-3.37.21-1.1.15-2.24-.15-3.32-.23-.77-.6-1.49-1.11-2.09-.18-.2-.38-.36-.57-.53l3.29-2.21c.45.32.77.77,1.07,1.23.29.48.53.99.74,1.5.78,1.79.95,3.67.8,5.58-.08.96-.29,1.91-.65,2.81-.38.93-.8,1.85-1.47,2.62-.9,1.07-1.98,1.95-3.2,2.65-1.62.87-3.4,1.46-5.22,1.7-.63.09-1.26.15-1.89.15H.02v-12.41l4.01,2.72v5.71h6.16v-3.53C6.85,37.88.02,33.12.02,33.12L0,12.36Z" class="st1"/><path d="M10.2,34.91l-6.18-4.16v-14.59c-.14,0,9.24-.03,13.27-.05.77-.02,1.53.06,2.28.23,1.2.27,2.28.74,3.2,1.58,1.13,1.05,1.53,2.37,1.64,3.85.05.74.08,1.47-.27,2.16-.29.56-1.79,1.62-2.04,1.8-1.25.84-2.49,1.68-3.73,2.51-.98.65-1.94,1.31-2.92,1.95-.03.03-.08.05-.15.08v-8.69l-5.11,3.43v9.9h0Z" class="st0"/><path d="M56.52,29.52c5.58-3.22,3.11-10.95-3.36-11.56h-13.34v24.08h11.65c.06,0,.11,0,.16.01h1.52c7.59-.54,9.96-9.22,3.37-12.53h0ZM44.5,22.05h7.68c3.6.26,3.66,5.34.02,5.6h-7.69v-5.61h0ZM52.49,37.87h-7.99v-6.25h7.42c4.75-.3,4.89,5.99.57,6.25h0Z" class="st1"/></svg>